<svg width="128" height="128" viewBox="0 0 128 128" fill="none" xmlns="http://www.w3.org/2000/svg">
<rect width="128" height="128" rx="16" fill="#262626"/>
<rect x="6" y="6" width="116" height="116" rx="10" fill="#262626" stroke="#404040" stroke-width="4"/>
<path d="M44.861 102.768C40.9783 102.768 37.5863 102.213 34.685 101.104C31.8263 99.952 29.181 98.1387 26.749 95.664L34.749 87.664C36.413 89.2427 38.1623 90.4587 39.997 91.312C41.8317 92.1227 43.7943 92.528 45.885 92.528C47.6343 92.528 48.957 92.272 49.853 91.76C50.749 91.2053 51.197 90.4587 51.197 89.52C51.197 88.5813 50.813 87.8133 50.045 87.216C49.277 86.576 48.253 86.0213 46.973 85.552C45.7357 85.04 44.349 84.528 42.813 84.016C41.3197 83.504 39.8263 82.8853 38.333 82.16C36.8397 81.4347 35.453 80.56 34.173 79.536C32.9357 78.4693 31.933 77.168 31.165 75.632C30.397 74.0533 30.013 72.1333 30.013 69.872C30.013 66.928 30.717 64.3893 32.125 62.256C33.533 60.1227 35.517 58.5013 38.077 57.392C40.637 56.24 43.645 55.664 47.101 55.664C50.5143 55.664 53.6717 56.2187 56.573 57.328C59.517 58.3947 61.949 59.9307 63.869 61.936L55.805 69.936C54.397 68.5707 52.989 67.568 51.581 66.928C50.173 66.2453 48.637 65.904 46.973 65.904C45.6503 65.904 44.5837 66.1173 43.773 66.544C43.005 66.9707 42.621 67.6107 42.621 68.464C42.621 69.36 43.005 70.1067 43.773 70.704C44.541 71.2587 45.5437 71.7707 46.781 72.24C48.061 72.7093 49.4477 73.2 50.941 73.712C52.477 74.224 53.9917 74.8427 55.485 75.568C56.9783 76.2507 58.3437 77.1467 59.581 78.256C60.861 79.3227 61.885 80.6667 62.653 82.288C63.421 83.9093 63.805 85.872 63.805 88.176C63.805 92.8267 62.141 96.432 58.813 98.992C55.5277 101.509 50.877 102.768 44.861 102.768ZM75.029 86V76.784H83.285C84.2663 76.784 85.1623 76.592 85.973 76.208C86.8263 75.7813 87.509 75.1627 88.021 74.352C88.533 73.4987 88.789 72.4533 88.789 71.216C88.789 69.9787 88.533 68.9547 88.021 68.144C87.509 67.2907 86.8263 66.672 85.973 66.288C85.1623 65.8613 84.2663 65.648 83.285 65.648H75.029V56.432H85.781C88.725 56.432 91.3703 57.0293 93.717 58.224C96.1063 59.376 97.9837 61.0613 99.349 63.28C100.757 65.456 101.461 68.1013 101.461 71.216C101.461 74.288 100.757 76.9333 99.349 79.152C97.9837 81.3707 96.1063 83.0773 93.717 84.272C91.3703 85.424 88.725 86 85.781 86H75.029ZM64.661 102V56.432H77.461V102H64.661Z" fill="white"/>
<rect x="26" y="26" width="77" height="14" rx="2" fill="#4ADE80"/>
</svg>
